<svg t="1748262746197" class="icon" viewBox="0 0 1024 1024" version="1.1" xmlns="http://www.w3.org/2000/svg" p-id="14007" width="200" height="200"><path d="M853.7581037 465.51798518c15.65582222-12.86447408 31.06891852-18.93262222 43.69066667-25.72894815 10.55857778-5.70405925 22.9376-14.80628148 29.61256296-29.36983703 0-14.68491852-13.34992592-28.88438518-38.10797036-42.23431111-4.00497778 17.96171852-13.83537778 54.37060741-37.01570372 98.91081481 0.48545185-0.60681482 1.09226667-1.09226667 1.82044445-1.57771852zM935.31401482 342.09185185h-1.3349926c0.48545185 0.12136297 0.84954075 0.36408889 1.3349926 0.48545185v-0.48545185z" fill="#C1272D" p-id="14008"></path><path d="M508.60183703 288.44942222c0.72817778-1.82044445 1.57771852-3.64088889 2.3058963-5.46133333-7.5245037-0.24272592-15.17037037-0.48545185-22.81623703-0.72817778 0.12136297 1.45635555 0.36408889 2.79134815 0.48545185 4.24770371 6.67496297 0.72817778 13.34992592 1.33499259 20.02488888 1.9418074z" fill="#BDCCD4" p-id="14009"></path><path d="M499.37825185 311.02293333c-2.54862222 6.67496297-4.97588148 13.34992592-7.40314074 20.02488889 0.48545185 11.16539259 0.60681482 23.05896297 0.36408889 35.55934815l42.96248889 23.78714074 109.46939259-105.8285037 13.22856297 7.40314074 13.59265185 7.5245037 53.03561481 29.4912 21.48124444-20.75306667 5.9467852-5.82542221 55.22014814-53.39970372c26.57848889-3.76225185 53.15697778-7.64586667 79.73546666-11.4081185 13.47128889-97.69718518-6.31087408-175.61220741-55.22014814-205.4674963 16.26263703 12.1362963 32.03982222 31.31164445 39.92841481 50.00154073 11.04402963 25.97167408 2.66998518 41.14204445-18.81125925 33.61754074-14.44219259-4.97588148-31.06891852-18.93262222-43.81202964-35.31662222-16.74808889 24.87940741-44.66157037 36.65161482-62.50192592 26.2144-8.61677037-4.97588148-13.34992592-14.0781037-14.19946666-25.00077037-35.80207408 16.14127408-67.47780741 20.38897778-73.30322964 9.22358519-3.15543703-5.94678518 1.69908148-15.29173333 11.89357037-25.60758519-60.19602963 46.48201482-119.17842963 124.5184-160.19911111 217.96788149-0.72817778 1.82044445-1.57771852 3.64088889-2.30589629 5.46133333-3.15543703 7.16041482-6.18951111 14.68491852-9.10222223 22.33078518z" fill="#FBB03B" p-id="14010"></path><path d="M752.1773037 302.40616297l-5.94678518 5.82542221-21.48124444 20.75306667-53.03561483-29.4912-13.59265184-7.5245037-13.22856296-7.40314074-109.4693926 105.8285037-42.96248888-23.78714074c-0.12136297 4.12634075-0.12136297 8.25268148-0.36408889 12.50038518-0.36408889 8.98085925-2.06317037 48.05973333-12.50038519 99.39626667 63.59419259 13.1072 153.76687408 21.23851852 253.89131852 21.23851853 25.2434963 0 45.99656297-2.3058963 63.59419259-6.18951112 24.39395555-5.82542222 39.56432592-14.32082963 47.93837037-19.90352593 1.45635555-1.57771852 3.76225185-3.88361482 6.79632593-6.5536 23.18032592-44.54020741 33.13208889-80.9490963 37.0157037-98.91081481 0.9709037-4.61179259 1.69908148-8.13131852 2.06317037-10.07312592 1.69908148-9.70903703 2.91271111-19.05398518 3.76225185-28.15620742 3.39816297-37.13706667 0.12136297-68.93416297-4.36906667-92.84266666-1.09226667 0.12136297-2.18453333 0.36408889-3.2768 0.48545186-26.57848889 3.76225185-53.15697778 7.64586667-79.73546666 11.4081185l-55.09878519 53.39970372z" fill="#FCEE21" p-id="14011"></path><path d="M659.21327408 90.74915555c5.82542222 11.28675555 37.37979259 6.91768889 73.30322962-9.22358518 0.84954075 10.92266667 5.5826963 20.14625185 14.19946667 25.00077038 17.96171852 10.31585185 45.75383703-1.33499259 62.50192593-26.2144 12.74311111 16.50536297 29.36983703 30.34074075 43.81202962 35.31662222 21.48124445 7.40314075 29.97665185-7.64586667 18.81125926-33.61754075-7.88859259-18.6898963-23.78714075-37.86524445-39.92841481-50.00154074-5.33997037-4.00497778-10.67994075-7.16041482-15.89854815-9.34494815-2.18453333-3.39816297-5.09724445-6.18951111-8.73813333-8.25268148-2.3058963-1.33499259-4.85451852-2.3058963-7.40314074-2.9127111-13.47128889-5.21860741-45.51111111 2.18453333-79.25001482 19.41807407-20.99579259 10.67994075-38.47205925 23.05896297-49.51608888 34.22435555-10.31585185 10.31585185-15.04900741 19.53943703-11.89357037 25.60758518z" p-id="14012"></path><path d="M377.52983703 316.84835555l38.10797038 38.95751112 33.7389037-74.75958519c11.89357037-4.00497778 23.66577778-8.00995555 35.55934814-12.01493333 0.36408889-19.05398518 0.12136297-37.25842963-0.84954073-54.3706074-1.82044445 0-3.88361482-0.84954075-6.06814815-2.42725927-9.70903703-6.91768889-21.35988148-26.94257778-30.70482962-50.97244445-9.22358518 37.37979259-26.57848889 55.7056-38.83614816 40.89931852-5.82542222-7.03905185-9.58767408-20.51034075-10.8013037-36.6516148-22.20942222 25.00077037-42.35567408 32.40391111-46.84610371 16.0199111v-0.24272593c-15.53445925 44.9042963-28.88438518 100.73125925-37.62251851 162.62637038-1.82044445 12.62174815-3.2768 25.12213333-4.61179259 37.50115555 8.49540741 9.70903703 17.11217778 20.38897778 25.60758517 31.7970963l43.32657778-96.3621926z" fill="#FBB03B" p-id="14013"></path><path d="M415.63780741 355.80586667l-38.10797038-38.95751112-43.44794073 96.3621926c6.5536 8.73813333 13.1072 18.08308148 19.29671111 27.67075555 4.00497778 6.18951111 17.96171852 28.03484445 31.79709629 59.46785185 9.70903703-13.71401482 16.62672592-29.12711111 19.90352593-45.5111111 16.26263703 8.8594963 41.87022222 16.86945185 74.51685926 23.66577777 10.43721482-51.33653333 12.1362963-90.29404445 12.50038519-99.39626667 0.12136297-4.2477037 0.24272592-8.37404445 0.36408889-12.50038518 0.24272592-12.50038518 0-24.39395555-0.36408889-35.55934815-0.60681482-16.384-1.94180741-31.19028148-3.39816297-44.29748147-0.12136297-1.45635555-0.36408889-2.91271111-0.48545186-4.24770372-0.60681482-4.85451852-1.21362963-9.46631111-1.82044443-13.83537778-0.48545185 0.12136297-0.9709037 0.36408889-1.45635557 0.48545186-11.89357037 4.00497778-23.66577778 8.00995555-35.55934814 12.01493334l-33.7389037 74.63822222z" fill="#098DD7" p-id="14014"></path><path d="M397.55472592 165.50874075c1.21362963 16.14127408 4.97588148 29.61256297 10.80130371 36.6516148 12.25765925 14.80628148 29.4912-3.51952592 38.83614815-40.89931852 9.34494815 24.02986667 20.99579259 44.05475555 30.70482963 50.97244445 2.3058963 1.69908148 4.36906667 2.42725925 6.06814814 2.42725927 9.34494815 0.24272592 11.40811852-20.87442963 3.88361482-52.91425186-7.64586667-33.01072592-22.81623703-66.87099259-36.0448-82.04136297l-25.36485926-14.92764444-35.92343703 21.23851852c-1.33499259 1.57771852-2.66998518 3.15543703-4.00497778 4.85451852-24.75804445 31.67573333-40.77795555 72.0896-36.0448 90.4154074v0.24272593c4.73315555 16.384 24.87940741 8.98085925 47.08882962-16.0199111z" p-id="14015"></path><path d="M112.59448889 497.19371852c2.3058963 3.51952592 4.85451852 6.91768889 7.5245037 10.31585185l12.37902223 3.76225185 5.82542221-97.57582222 83.13362964 25.00077037 4.36906666-73.66731852c15.65582222-6.31087408 31.19028148-12.74311111 46.8461037-19.05398518-54.24924445-79.00728889-118.32888889-138.23241482-171.00041481-155.83004445 18.93262222 7.5245037 42.11294815 20.75306667 59.58921481 34.58844445 24.39395555 19.17534815 28.39893333 32.16118518 8.98085927 29.00574815-13.1072-2.18453333-33.37481482-11.04402963-52.79288889-22.45214815 4.73315555 21.84533333-6.5536 34.58844445-25.48622223 28.64165925-9.10222222-2.91271111-18.20444445-9.46631111-25.97167407-18.08308147-13.95674075 17.23354075-32.64663703 24.63668148-43.93339259 16.50536296-5.94678518-4.36906667-8.73813333-12.25765925-8.49540741-21.72397038-11.89357037 48.78791111 2.06317037 127.43111111 42.71976297 216.2688 6.5536 14.19946667 13.47128889 28.15620741 20.75306667 41.74885927l33.3748148 10.07312592c0.84954075-2.54862222 1.45635555-4.97588148 2.18453334-7.5245037z" fill="#FBB03B" p-id="14016"></path><path d="M77.27786667 494.52373333l-2.79134815-0.84954074c3.2768 9.22358518 7.03905185 18.08308148 10.92266666 27.06394074 4.73315555 11.04402963 10.43721482 23.66577778 17.35490371 37.86524445 0.72817778-16.86945185 3.15543703-34.95253333 8.00995556-54.12788148l-33.49617778-9.95176297zM221.3357037 438.69677037L138.32343703 413.696l-5.82542221 97.57582222-12.37902223-3.76225185c28.39893333 34.95253333 75.97321482 57.89013333 129.85837038 57.89013333 57.52604445 0 107.77031111-26.09303703 135.19834073-65.05054815-13.71401482-31.43300741-27.79211852-53.27834075-31.79709629-59.46785185-6.31087408-9.70903703-12.74311111-18.93262222-19.29671111-27.67075555-8.49540741-11.40811852-17.23354075-21.9666963-25.60758519-31.7970963-12.01493333-13.83537778-23.66577778-25.97167408-33.98162963-36.16616296-0.60681482 0.24272592-1.21362963 0.48545185-1.9418074 0.72817778-15.65582222 6.31087408-31.19028148 12.74311111-46.84610371 19.05398518l-4.36906667 73.66731852z" fill="#FCEE21" p-id="14017"></path><path d="M22.17908148 258.35140741c11.28675555 8.13131852 29.97665185 0.72817778 43.9333926-16.50536296 7.64586667 8.61677037 16.86945185 15.17037037 25.97167407 18.08308147 18.93262222 5.94678518 30.21937778-6.79632592 25.48622222-28.64165925 19.29671111 11.40811852 39.68568889 20.38897778 52.79288888 22.45214815 19.41807408 3.15543703 15.4130963-9.8304-8.98085925-29.00574815-17.47626667-13.71401482-40.77795555-26.94257778-59.58921482-34.58844445-6.18951111-2.42725925-12.01493333-4.36906667-16.86945185-5.46133333-3.76225185-2.42725925-7.5245037-4.2477037-11.28675555-5.46133334-2.42725925-0.72817778-4.73315555-1.21362963-6.91768889-1.33499258-12.50038518-2.42725925-29.4912 7.40314075-41.26340741 25.36485925-7.28177778 11.16539259-11.16539259 23.05896297-11.52948148 33.37481481-0.48545185 9.34494815 2.3058963 17.3549037 8.25268148 21.72397038z" p-id="14018"></path><path d="M949.39211852 891.74471111C918.56592592 846.96177778 894.90014815 794.16888889 891.98743703 735.30785185c-3.2768 63.10874075 22.33078518 119.29979259 57.40468149 166.1458963 5.09724445 6.79632592 7.88859259 13.59265185 8.61677037 20.26761482 0.9709037-9.8304-1.69908148-19.90352592-8.61677037-29.97665186zM204.9517037 888.71063703c0.60681482-6.5536 0.72817778-12.74311111 0.48545185-18.81125925-0.12136297 2.66998518-0.24272592 5.33997037-0.48545185 8.00995555-0.84954075 9.95176297-2.54862222 19.6608-4.85451852 28.88438519-1.21362963 4.73315555-1.45635555 9.46631111-0.9709037 14.0781037 0.24272592-1.82044445 0.48545185-3.64088889 0.9709037-5.46133333 2.3058963-8.61677037 4.00497778-17.47626667 4.85451852-26.69985186zM249.97736297 600.4736c77.79365925 0 142.35875555-44.05475555 155.10186666-101.94488889 48.05973333 24.15122963 176.9472 41.38477037 328.40817778 41.38477037 125.4893037 0 141.02376297-52.79288889 202.43342222-70.51188148-5.21860741 4.2477037-9.46631111 8.98085925-12.98583704 14.19946667 108.98394075-43.08385185 128.15928889-92.47857778 30.70482963-133.74198519-5.82542222-2.42725925-11.89357037-4.85451852-18.44717037-7.16041481-0.48545185-0.12136297-0.84954075-0.36408889-1.3349926-0.48545185-12.01493333-4.2477037-25.12213333-8.37404445-39.20023703-12.25765927-0.84954075 9.10222222-2.06317037 18.44717037-3.76225185 28.15620742-0.36408889 2.06317037-0.9709037 5.46133333-2.06317037 10.07312592 24.75804445 13.34992592 38.10797037 27.42802963 38.10797037 42.23431111-6.5536 14.56355555-19.05398518 23.66577778-29.61256296 29.36983703-12.62174815 6.79632592-28.03484445 12.86447408-43.69066666 25.72894815-0.60681482 0.60681482-1.33499259 1.09226667-1.94180742 1.57771852-3.03407408 2.66998518-5.33997037 4.97588148-6.79632592 6.5536-8.37404445 5.70405925-23.54441482 14.19946667-47.93837038 19.90352593-0.36408889 0.12136297-0.72817778 0.12136297-1.09226666 0.24272592-24.27259259 5.5826963-46.48201482 5.94678518-62.50192592 5.9467852-100.12444445 0-190.41848889-8.13131852-253.89131853-21.23851853-32.64663703-6.67496297-58.25422222-14.68491852-74.51685925-23.66577777-3.2768 16.384-10.19448889 31.67573333-19.90352592 45.5111111-27.42802963 38.95751111-77.6722963 65.05054815-135.19834075 65.05054815-53.88515555 0-101.45943703-22.9376-129.85837037-57.89013333-2.66998518-3.2768-5.21860741-6.79632592-7.52450371-10.31585185-0.72817778 2.54862222-1.33499259 4.97588148-1.9418074 7.40314073-4.85451852 19.17534815-7.28177778 37.13706667-8.00995555 54.1278815-0.36408889 9.8304-0.24272592 19.17534815 0.48545185 28.27757036 1.21362963-15.53445925 4.12634075-31.91845925 9.4663111-49.39472593 27.06394075 37.50115555 78.40047408 62.86601482 137.50423705 62.86601482zM908.97825185 606.29902222c0.9709037-22.57351111-0.48545185-46.11792592-1.3349926-69.05552592-1.33499259 21.84533333 0.48545185 45.51111111 1.3349926 69.05552592z" fill="#BDCCD4" p-id="14019"></path><path d="M891.98743703 735.30785185c0.9709037-17.96171852 4.12634075-36.40888889 10.19448889-55.3415111 7.16041482-22.45214815 7.5245037-47.93837037 6.67496297-73.66731853-0.72817778-23.54441482-2.54862222-47.33155555-1.33499259-69.05552592 1.21362963-20.38897778 5.21860741-38.95751111 15.41309629-53.88515555 3.51952592-5.21860741 7.76722963-9.95176297 12.98583704-14.19946667-61.40965925 17.71899259-76.94411852 70.51188148-202.43342222 70.51188147-151.46097778 0-280.34844445-17.23354075-328.40817778-41.38477037-12.74311111 57.89013333-77.30820741 101.94488889-155.10186666 101.9448889-58.9824 0-110.4402963-25.36485925-137.38287408-62.86601483-5.21860741 17.47626667-8.25268148 33.86026667-9.46631111 49.39472593-2.79134815 34.95253333 3.39816297 64.80782222 11.89357037 89.08041482 27.42802963 77.42957037 87.74542222 120.63478518 90.4154074 193.81665185 0.24272592 6.06814815 0.12136297 12.37902222-0.48545185 18.81125926-0.84954075 9.22358518-2.54862222 18.08308148-4.85451852 26.69985186-0.48545185 1.82044445-0.84954075 3.64088889-0.9709037 5.46133333-5.70405925 52.06471111 109.34802963 96.24082963 257.41084444 96.24082962h243.69682963c149.7618963 0 263.47899259-44.78293333 257.77493334-95.51265184-0.72817778-6.67496297-3.51952592-13.47128889-8.61677037-20.26761483-34.95253333-46.48201482-60.68148148-102.67306667-57.40468149-165.7818074z" fill="#FF1D25" p-id="14020"></path></svg>